<svg width="16" height="16" viewBox="0 0 16 16" fill="none" xmlns="http://www.w3.org/2000/svg">
<path d="M9.004 6.996C9.7368 6.6824 10.808 6.4848 12 6.4848C14.2088 6.4848 16 7.1632 16 8C16 8.8368 14.2088 9.5152 12 9.5152C10.8072 9.5152 9.7368 9.3176 9.004 9.004C9.3176 9.7368 9.51519 10.808 9.51519 12C9.51519 14.2088 8.8368 16 8 16C7.1632 16 6.4848 14.2088 6.4848 12C6.4848 10.8072 6.6824 9.7368 6.996 9.004C6.2632 9.3176 5.1928 9.5152 4 9.5152C1.7912 9.5152 0 8.8368 0 8C0 7.1632 1.7912 6.4848 4 6.4848C5.1928 6.4848 6.2632 6.6824 6.996 6.996C6.6824 6.2632 6.4848 5.1928 6.4848 4C6.4848 1.7912 7.1632 0 8 0C8.8368 0 9.51519 1.7912 9.51519 4C9.51519 5.1928 9.3176 6.2632 9.004 6.996Z" fill="black"/>
</svg>
