<svg width="128" height="128" viewBox="0 0 128 128" fill="none" xmlns="http://www.w3.org/2000/svg">
<path d="M62.7513 58.9076L65.7407 58.918C68.4972 27.4893 94.5216 2.7344 126.482 1.97251C125.716 34.0819 100.733 60.1976 69.0924 62.7513L69.082 65.7407C100.511 68.4972 125.266 94.5216 126.028 126.482C93.9182 125.716 67.8024 100.733 65.2487 69.0924L62.2593 69.082C59.5028 100.511 33.4784 125.266 1.51808 126.028C2.28354 93.9182 27.2671 67.8024 58.9076 65.2487L58.918 62.2593C27.4893 59.5028 2.73436 33.4784 1.97247 1.51808C34.0818 2.28354 60.1976 27.2671 62.7513 58.9076Z" stroke="#F269AF" stroke-width="3"/>
</svg>
