<svg width="128" height="128" viewBox="0 0 128 128" fill="none" xmlns="http://www.w3.org/2000/svg">
<path d="M61.4073 124.219L61.4076 124.221C61.7434 125.573 62.8978 126.498 64.16 126.5C65.4264 126.498 66.5799 125.569 66.9111 124.213L66.9115 124.212C68.5138 117.684 71.5791 110.848 76.0577 103.701L76.0579 103.701C79.6884 97.912 84.3332 92.4237 89.9715 87.2327C95.6058 81.9367 101.697 77.3711 108.239 73.5383L108.249 73.5324C113.678 70.4079 118.98 68.1256 124.166 66.704C125.551 66.3244 126.5 65.0929 126.5 63.7984C126.5 62.5 125.585 61.3199 124.231 60.9425C116.093 58.6818 108.11 54.7652 100.296 49.2262L100.289 49.2212C94.3188 44.9382 88.9025 40.1459 84.0556 34.8442L84.0446 34.8322L84.0339 34.8199C79.2959 29.406 75.3918 23.752 72.3301 17.857L72.3244 17.846C69.8995 13.081 68.1027 8.39915 66.9517 3.80816M61.4073 124.219L68.4066 3.44338M61.4073 124.219C59.8046 117.789 56.74 111.007 52.2777 103.878M61.4073 124.219L52.2777 103.878M66.9517 3.80816L68.4066 3.44338M66.9517 3.80816C66.9519 3.80894 66.9521 3.80972 66.9523 3.8105L68.4066 3.44338M66.9517 3.80816C66.6059 2.44272 65.4107 1.5 64.1377 1.5C62.8609 1.5 61.6999 2.41627 61.3455 3.76498M68.4066 3.44338C67.9074 1.46568 66.1538 0 64.1377 0C62.1216 0 60.4063 1.43366 59.8942 3.38576M61.3455 3.76498C61.3456 3.76453 61.3458 3.76408 61.3459 3.76363L59.8942 3.38576M61.3455 3.76498C59.3548 11.4116 55.6938 19.1073 50.4057 26.8445L50.4026 26.849C44.403 35.5586 36.9452 43.021 28.0199 49.2335L28.0169 49.2357C20.2575 54.608 12.1668 58.5037 3.75303 60.9076M61.3455 3.76498C61.3454 3.76543 61.3453 3.76588 61.3452 3.76633L59.8942 3.38576M59.8942 3.38576L3.75303 60.9076M3.75303 60.9076C3.75324 60.9076 3.75345 60.9075 3.75366 60.9075L3.34095 59.4654M3.75303 60.9076L49.1673 25.9981C43.2726 34.5553 35.9442 41.8901 27.163 48.0024C19.5274 53.2891 11.5846 57.11 3.34095 59.4654M3.75303 60.9076C2.40292 61.2943 1.5 62.4434 1.5 63.792C1.5 65.1279 2.44604 66.3372 3.84196 66.7237C12.468 69.0938 21.0392 73.5248 29.5684 79.9698C39.355 87.2828 46.9378 95.2414 52.2777 103.878M3.75303 60.9076L3.34095 59.4654M3.34095 59.4654C1.39525 60.0222 0 61.7247 0 63.792C0 65.8593 1.45288 67.6194 3.44338 68.1698C11.8534 70.4803 20.257 74.8134 28.6671 81.1689C38.3379 88.3948 45.7815 96.2224 51.0042 104.671L52.2777 103.878" stroke="#F55E1D" stroke-width="3"/>
</svg>
