<svg width="40" height="40" viewBox="0 0 40 40" fill="none" xmlns="http://www.w3.org/2000/svg">
<path d="M12.5246 24.1665H14.3003C24.3518 24.1665 26.6665 17.4767 26.6665 12.5473V-0.00012207H19.2468V12.3553C19.2468 15.9723 17.4394 18.2449 13.571 18.2449H13.1905C8.08544 18.2449 7.57811 14.7239 7.48299 13.6676H-0.000167847V13.8597C-0.000167847 18.3729 2.69504 24.1665 12.5246 24.1665Z" fill="#0267FF"/>
<path d="M25.8578 39.9997H27.6334C37.685 39.9997 39.9997 33.3098 39.9997 28.3805V15.833H32.5799V28.1884C32.5799 31.8054 30.7726 34.078 26.9042 34.078H26.5237C21.4186 34.078 20.9113 30.5571 20.8162 29.5008H13.333V29.6928C13.333 34.2061 16.0282 39.9997 25.8578 39.9997Z" fill="#F269AF"/>
</svg>
