<svg width="16" height="17" viewBox="0 0 16 17" fill="none" xmlns="http://www.w3.org/2000/svg">
<path d="M0 5.18929C0.00905443 3.62448 0.579483 2.29216 1.65153 1.15297C2.02819 0.754167 2.42478 0.383977 2.93364 0.155067C3.56201 -0.125705 4.04552 -0.0291334 4.50186 0.476972C5.20267 1.25312 5.81294 2.08828 6.18418 3.07188C6.35802 3.53328 6.454 4.00898 6.28921 4.4972C6.20953 4.73147 6.07371 4.93177 5.87632 5.08915C5.49423 5.39496 5.11575 5.70434 4.73003 6.00836C4.16504 6.45187 4.0093 7.05813 4.30085 7.76095C4.58878 8.45841 5.02159 9.06824 5.47612 9.66555C6.13528 10.5311 6.91215 11.2894 7.75783 11.9725C8.01679 12.1818 8.32102 12.3606 8.63249 12.4786C9.25906 12.7165 9.82406 12.5502 10.2623 12.0441C10.552 11.7096 10.8544 11.3949 11.2402 11.1696C11.9772 10.7386 12.6997 10.735 13.406 11.2411C14.1303 11.7615 14.8438 12.2962 15.4686 12.9329C15.7601 13.2298 15.9829 13.5606 15.9992 13.9898C16.0082 14.242 15.943 14.478 15.7801 14.6712C14.574 16.1072 13.0692 16.9728 11.1388 16.9996C10.3601 17.0103 9.62305 16.7993 8.9005 16.5382C7.56407 16.0536 6.36889 15.3311 5.34936 14.3546C3.96765 13.0277 2.66562 11.6202 1.61712 10.0196C0.833008 8.81608 0.253524 7.50879 0.0724354 6.0638C0.0362177 5.77409 0.0235415 5.4808 0 5.18929Z" fill="#5834A4"/>
</svg>
