<svg width="32" height="32" viewBox="0 0 32 32" fill="none" xmlns="http://www.w3.org/2000/svg">
<path d="M16 32C24.8366 32 32 24.8366 32 16C32 7.16344 24.8366 0 16 0C7.16344 0 0 7.16344 0 16C0 24.8366 7.16344 32 16 32Z" fill="white"/>
<path d="M3.70438 17.8222C5.56096 14.5934 10.6723 18.5055 10.6723 18.5055C10.6723 18.5055 5.50907 8.3606 10.8165 8.3606C16.1238 8.3606 15.5473 13.5844 15.1523 16.9228C14.6911 20.8118 12.1426 22.5703 9.917 22.9682C5.93285 23.6802 2.30619 20.2583 3.70727 17.8222H3.70438Z" fill="#0267FF"/>
<path d="M16.0982 17.8222C17.9548 14.5934 23.0662 18.5055 23.0662 18.5055C23.0662 18.5055 17.9029 8.3606 23.2103 8.3606C28.5177 8.3606 27.9411 13.5844 27.5462 16.9228C27.0849 20.8118 24.5364 22.5703 22.3109 22.9682C18.3267 23.6802 14.7 20.2583 16.1011 17.8222H16.0982Z" fill="#0267FF"/>
</svg>
