<svg width="102" height="64" viewBox="0 0 102 64" fill="none" xmlns="http://www.w3.org/2000/svg">
<g clip-path="url(#clip0_9285_14)">
<path d="M11.0575 31.976C11.0575 31.976 11.978 29.5551 11.978 27.8431C11.978 26.1311 11.5656 24.7432 11.0575 24.7432C10.5494 24.7432 10.137 26.1311 10.137 27.8431C10.137 29.5551 11.0575 31.976 11.0575 31.976ZM11.0575 31.976C11.0575 31.976 12.1496 34.3274 13.3824 35.5374C14.6151 36.7482 15.9053 37.4432 16.2647 37.0903C16.6241 36.7373 15.9163 35.4694 14.6836 34.2594C13.4509 33.0486 11.0575 31.976 11.0575 31.976ZM11.0575 31.976C11.0575 31.976 13.5223 31.0719 15.2654 31.0719C17.0084 31.0719 18.4216 31.4769 18.4216 31.976C18.4216 32.475 17.0084 32.88 15.2654 32.88C13.5223 32.88 11.0575 31.976 11.0575 31.976ZM11.0575 31.976C11.0575 31.976 8.6634 33.0486 7.43142 34.2594C6.19865 35.4701 5.49093 36.7373 5.8503 37.0903C6.20966 37.4432 7.5006 36.7482 8.73263 35.5374C9.9654 34.3266 11.0575 31.976 11.0575 31.976ZM11.0575 31.976C11.0597 31.981 11.978 34.3989 11.978 36.1088C11.978 37.8186 11.5656 39.2086 11.0575 39.2086C10.5494 39.2086 10.137 37.8208 10.137 36.1088C10.137 34.3968 11.0575 31.976 11.0575 31.976ZM11.0575 31.976C11.0575 31.976 8.5927 31.0719 6.84963 31.0719C5.10655 31.0719 3.69336 31.4769 3.69336 31.976C3.69336 32.475 5.10655 32.88 6.84963 32.88C8.5927 32.88 11.0575 31.976 11.0575 31.976ZM11.0575 31.976C11.0575 31.976 13.4516 30.9033 14.6836 29.6926C15.9163 28.4818 16.6241 27.2146 16.2647 26.8616C15.9053 26.5087 14.6144 27.2037 13.3824 28.4145C12.1496 29.6253 11.0575 31.976 11.0575 31.976ZM8.73263 28.4145C9.9654 29.6253 11.0575 31.976 11.0575 31.976C11.0575 31.976 8.6634 30.9033 7.43142 29.6926C6.19865 28.4818 5.49093 27.2146 5.8503 26.8616C6.20966 26.5087 7.5006 27.2037 8.73263 28.4145Z" fill="white"/>
<path fill-rule="evenodd" clip-rule="evenodd" d="M38.001 37.3105C32.4309 41.8814 27.916 37.4479 32.5708 31.9771C27.9168 26.5063 32.4309 22.072 38.001 26.6437C43.5697 22.0727 48.0861 26.5063 43.4313 31.9771C48.0853 37.4436 43.5697 41.8822 38.001 37.3105ZM37.9995 34.187C39.2423 34.187 40.2495 33.1976 40.2495 31.977C40.2495 30.7565 39.2423 29.767 37.9995 29.767C36.7569 29.767 35.7496 30.7565 35.7496 31.977C35.7496 33.1976 36.7569 34.187 37.9995 34.187Z" fill="white"/>
<path d="M59.5354 31.9762C61.5688 31.9762 63.2175 30.3568 63.2175 28.3598C63.2175 30.3568 64.8662 31.9762 66.8996 31.9762C64.8662 31.9762 63.2175 33.5956 63.2175 35.5926C63.2175 33.5956 61.5688 31.9762 59.5354 31.9762ZM59.5354 31.9762C57.5024 31.9762 55.8533 33.5956 55.8533 35.5926C55.8533 37.5896 57.5024 39.2089 59.5354 39.2089C61.5688 39.2089 63.2175 37.5896 63.2175 35.5926C63.2175 37.5896 64.8662 39.2089 66.8996 39.2089C68.933 39.2089 70.5817 37.5896 70.5817 35.5926C70.5817 33.5956 68.933 31.9762 66.8996 31.9762C68.933 31.9762 70.5817 30.3568 70.5817 28.3598C70.5817 26.3628 68.933 24.7434 66.8996 24.7434C64.8662 24.7434 63.2175 26.3628 63.2175 28.3598C63.2175 26.3628 61.5688 24.7434 59.5354 24.7434C57.5024 24.7434 55.8533 26.3628 55.8533 28.3598C55.8533 30.3568 57.5024 31.9762 59.5354 31.9762Z" fill="white"/>
<path d="M87.5133 39.2608C87.2798 39.2608 87.0816 39.0947 87.0254 38.8718C86.845 38.1614 86.4987 37.4059 85.9883 36.6053C85.3833 35.6437 84.5207 34.7527 83.3999 33.9303C82.4253 33.2068 81.4518 32.7137 80.4772 32.4507C80.2464 32.388 80.0781 32.1877 80.0781 31.9524C80.0781 31.7171 80.2399 31.5233 80.4652 31.4599C81.4204 31.1918 82.3407 30.7569 83.2258 30.1552C84.2434 29.4594 85.0924 28.6246 85.7754 27.6506C86.3792 26.7829 86.7938 25.9248 87.0184 25.0768C87.0777 24.8546 87.2767 24.6914 87.5102 24.6914C87.744 24.6914 87.9473 24.8583 88.005 25.0834C88.1346 25.5918 88.3378 26.1127 88.6139 26.6453C88.9618 27.3031 89.4059 27.9354 89.9465 28.5423C90.5 29.1367 91.1186 29.6743 91.8008 30.1552C92.6924 30.7759 93.5991 31.2122 94.5202 31.4636C94.7467 31.5255 94.9104 31.7229 94.9104 31.9531C94.9104 32.1833 94.7421 32.3866 94.5121 32.4485C93.9276 32.6058 93.3273 32.8594 92.7087 33.209C91.9617 33.6388 91.2659 34.151 90.6221 34.7455C89.9783 35.3275 89.4505 35.9409 89.039 36.5857C88.5271 37.3877 88.1807 38.1492 88.0004 38.8703C87.9449 39.0939 87.7467 39.2608 87.5125 39.2608H87.5133Z" fill="white"/>
<path d="M10.4579 19.3364H11.9042C20.0917 19.3364 21.9771 14.0929 21.9771 10.2293V0.394531H15.9334V10.0787C15.9334 12.9138 14.4612 14.6951 11.3102 14.6951H11.0003C6.84195 14.6951 6.42872 11.9353 6.35123 11.1074H0.255859V11.2579C0.255859 14.7954 2.45123 19.3364 10.4579 19.3364Z" fill="white"/>
<path d="M38.319 0.0683594C26.1541 0.0683594 24.7852 5.96418 24.7852 9.30098V10.0536C24.7852 13.3403 26.1541 19.3866 38.319 19.3866H39.4296C51.5428 19.3866 52.9374 13.3403 52.9374 10.0536V9.30098C52.9374 5.96418 51.5172 0.0683594 39.4296 0.0683594H38.319ZM46.6355 9.4766V9.82784C46.6355 11.9855 45.3185 14.8455 38.8614 14.8455C32.3786 14.8455 31.0872 11.9102 31.0872 9.77766V9.4766C31.0872 7.31896 32.2753 4.58433 38.8614 4.58433C45.344 4.58433 46.6355 7.31896 46.6355 9.4766Z" fill="white"/>
<path d="M61.9926 19.0605V10.2544L72.143 19.0605H79.9946L68.4237 8.92465L79.478 0.394531H71.8331L61.9926 8.17201V0.394531H55.9746V19.0605H61.9926Z" fill="white"/>
<path d="M90.4551 0.394531H84.4375V19.0605H90.4551V0.394531Z" fill="white"/>
<path d="M10.4592 63.6351H11.9058C20.0943 63.6351 21.98 58.3916 21.98 54.528V44.6934H15.9354V54.3776C15.9354 57.2122 14.4631 58.9935 11.3116 58.9935H11.0017C6.84285 58.9935 6.42953 56.2339 6.35204 55.4061H0.255859V55.5566C0.255859 59.0941 2.45152 63.6351 10.4592 63.6351Z" fill="white"/>
<path d="M38.3227 44.3672C26.1562 44.3672 24.7871 50.2632 24.7871 53.5999V54.3527C24.7871 57.6392 26.1562 63.6857 38.3227 63.6857H39.4333C51.5485 63.6857 52.9431 57.6392 52.9431 54.3527V53.5999C52.9431 50.2632 51.5225 44.3672 39.4333 44.3672H38.3227ZM46.6404 53.7756V54.1268C46.6404 56.2845 45.323 59.1447 38.8652 59.1447C32.3815 59.1447 31.0899 56.2091 31.0899 54.0765V53.7756C31.0899 51.6179 32.2782 48.8834 38.8652 48.8834C45.3489 48.8834 46.6404 51.6179 46.6404 53.7756Z" fill="white"/>
<path d="M62.9314 63.3593H68.9502V56.1337L78.9466 44.6934H72.1529L66.0826 51.5676L60.1158 44.6934H52.6504L62.9314 56.1337V63.3593Z" fill="white"/>
<path d="M91.4705 55.7322H84.1862L87.7508 48.7326L91.4705 55.7322ZM95.5005 63.3593H101.984L91.7032 44.6934H83.9019L74.1895 63.3593H80.3114L82.0423 59.9471H93.692L95.5005 63.3593Z" fill="white"/>
</g>
<defs>
<clipPath id="clip0_9285_14">
<rect width="102" height="64" fill="white"/>
</clipPath>
</defs>
</svg>
