<svg width="32" height="32" viewBox="0 0 32 32" fill="none" xmlns="http://www.w3.org/2000/svg">
<path d="M16 32C24.8366 32 32 24.8366 32 16C32 7.16344 24.8366 0 16 0C7.16344 0 0 7.16344 0 16C0 24.8366 7.16344 32 16 32Z" fill="white"/>
<path d="M15.0979 20.0015C14.8038 20.2898 14.5155 20.5695 14.2272 20.852C13.7746 21.296 13.322 21.7399 12.8723 22.1868C12.7454 22.3136 12.61 22.4088 12.4254 22.3194C12.2467 22.2329 12.2438 22.0715 12.2582 21.9043C12.3447 20.7021 12.4254 19.497 12.5206 18.2949C12.5263 18.2026 12.5984 18.096 12.6676 18.0297C14.1523 16.6574 15.6427 15.288 17.1303 13.9187C18.0528 13.0682 18.9754 12.2206 19.8979 11.3702C19.9411 11.3298 19.9988 11.2924 20.0247 11.2405C20.0478 11.1943 20.0593 11.1079 20.0334 11.0819C19.9959 11.0444 19.9181 11.0329 19.8633 11.0387C19.8143 11.0444 19.7682 11.0877 19.722 11.1165C16.5249 13.0711 13.3307 15.0228 10.1364 16.9803C10.0096 17.0581 9.90293 17.0725 9.76166 17.0235C8.4759 16.5796 7.19013 16.1443 5.90148 15.7061C5.54689 15.585 5.38833 15.4062 5.38545 15.1179C5.38256 14.8354 5.53247 14.6509 5.86977 14.5212C10.2633 12.8376 14.6568 11.1569 19.0503 9.47326C20.0939 9.07254 21.1375 8.6747 22.1811 8.27686C22.5473 8.13849 22.8874 8.19614 23.1815 8.4556C23.4669 8.7093 23.5707 9.0293 23.4871 9.40407C23.3977 9.81921 23.3083 10.2343 23.2161 10.6466C22.3454 14.6048 21.4719 18.563 20.6013 22.5183C20.584 22.5961 20.5696 22.6769 20.5465 22.7547C20.3851 23.3169 19.771 23.5216 19.2867 23.1583C18.5891 22.6394 17.9 22.1089 17.2053 21.5843C16.5595 21.097 15.9166 20.607 15.2709 20.1197C15.219 20.0794 15.1642 20.0419 15.095 19.9958L15.0979 20.0015Z" fill="#0267FF"/>
</svg>
