<svg width="32" height="32" viewBox="0 0 32 32" fill="none" xmlns="http://www.w3.org/2000/svg">
<path d="M16 32C24.8366 32 32 24.8366 32 16C32 7.16344 24.8366 0 16 0C7.16344 0 0 7.16344 0 16C0 24.8366 7.16344 32 16 32Z" fill="white"/>
<path d="M27.5463 23.1296C27.3906 23.5966 27.1657 23.7869 26.6584 23.8013C25.5542 23.8359 24.4472 23.8243 23.343 23.8878C22.383 23.9454 21.6248 23.5764 20.9791 22.9278C20.4544 22.3973 19.9758 21.8265 19.4598 21.2874C19.2724 21.0914 19.062 20.9155 18.8371 20.7627C18.4537 20.5033 18.1769 20.5523 17.8627 20.8953C17.5052 21.2816 17.4101 21.7688 17.3524 22.2647C17.3236 22.5097 17.3236 22.7606 17.3092 23.0085C17.2774 23.4842 17.0439 23.7667 16.5711 23.7984C16.0205 23.8388 15.467 23.8388 14.9135 23.8243C14.458 23.8128 13.9996 23.7869 13.5528 23.7119C12.2238 23.4842 11.1052 22.8038 10.027 22.0398C9.02087 21.3306 8.27709 20.3793 7.54484 19.4135C5.68538 16.9515 4.26988 14.2388 3.02736 11.4251C2.78231 10.8687 2.96393 10.5573 3.57511 10.5112C4.02195 10.4766 4.47168 10.4881 4.92141 10.4852C5.63348 10.4795 6.34844 10.4766 7.06051 10.4766C7.5852 10.4766 7.93691 10.7072 8.17042 11.1944C8.79601 12.4917 9.43601 13.7804 10.0991 15.0575C10.3787 15.5966 10.7362 16.0982 11.2263 16.4788C11.3445 16.571 11.48 16.6517 11.6184 16.7007C11.898 16.7988 12.1113 16.7007 12.2555 16.447C12.4919 16.029 12.512 15.5591 12.5639 15.1007C12.685 14.0427 12.6706 12.9933 12.4486 11.9469C12.3218 11.3443 11.9441 11.0272 11.3675 10.9033C11.2724 10.8831 11.1888 10.8254 11.0965 10.7851C11.1456 10.6957 11.183 10.5977 11.2493 10.5227C11.4973 10.2431 11.8115 10.0701 12.1805 10.0153C13.5672 9.81065 14.9567 9.77893 16.3434 10.0009C17.0266 10.1105 17.2746 10.3411 17.3409 11.1368C17.3928 11.7652 17.338 12.4024 17.3322 13.0337C17.3236 13.8669 17.3034 14.7 17.312 15.5332C17.312 15.7753 17.3668 16.0319 17.4562 16.2568C17.6436 16.744 18.0212 16.8103 18.4162 16.4788C19.062 15.9397 19.4973 15.2362 19.9412 14.5443C20.6158 13.4892 21.1693 12.3706 21.6335 11.2088C21.6854 11.0762 21.7488 10.9436 21.8238 10.8225C21.9333 10.6409 22.1005 10.5342 22.3196 10.5314C23.7784 10.5141 25.2371 10.4881 26.6958 10.4881C27.0418 10.4881 27.4079 10.5487 27.5492 10.9638V11.3011C27.3935 11.6672 27.2638 12.0449 27.0793 12.3937C26.4652 13.5497 25.6378 14.5616 24.8565 15.6052C24.4558 16.1415 24.0551 16.6834 23.6976 17.2514C23.4238 17.6838 23.4929 18.1018 23.8274 18.4881C23.9888 18.6755 24.1647 18.8514 24.3405 19.0272C25.0007 19.6903 25.6897 20.3274 26.3153 21.0193C26.8573 21.6189 27.4194 22.2243 27.5492 23.0806V23.1296H27.5463Z" fill="#0267FF"/>
</svg>
